# xmcd CD database file
#
# Track frame offsets:
#	150
#	5022
#	9890
#	14733
#	19596
#	24604
#	29608
#	34961
#	40310
#	43646
#	46977
#	51463
#	55948
#	59875
#	63797
#	66930
#	70061
#	72833
#	75600
#	79506
#	83409
#	88621
#	93832
#	97720
#	101615
#	109795
#	117973
#	123499
#	129023
#	136539
#	144055
#	149810
#
# Disc length: 2072 seconds
#
# Revision: 0
# Processed by: cddbd v1.5.2PL0 Copyright (c) Steve Scherf et al.
# Submitted via: CDex 1.50
#
DISCID=a7081620
DTITLE=Lev Haitovich - Boy and Girl
DYEAR=2005
DGENRE=Jazz
TTITLE0=Vokaliz1
TTITLE1=Vokaliz2
TTITLE2=Vokaliz3
TTITLE3=Vokaliz4
TTITLE4=Chiki1
TTITLE5=Chiki2
TTITLE6=Vokaliz5
TTITLE7=Vokaliz6
TTITLE8=Skromnyi Billy1
TTITLE9=Skromnyi Billy2
TTITLE10=Sket po russki1
TTITLE11=Sket po russki2
TTITLE12=Sket po russki3
TTITLE13=Sket po russki4
TTITLE14=Sket po russki5
TTITLE15=Sket po russki6
TTITLE16=Sket po russki7
TTITLE17=Sket po russki8
TTITLE18=Vokaliz3-1
TTITLE19=Vokaliz3-2
TTITLE20=Etot Samyi1
TTITLE21=Etot samyi2
TTITLE22=Kowboy1
TTITLE23=Cowboy2
TTITLE24=Motiv1
TTITLE25=Motiv2
TTITLE26=Horosho skakat galopom1
TTITLE27=Horosho skakat galopom2
TTITLE28=Skaji1
TTITLE29=Skaji2
TTITLE30=Ty uj nas prosti1
TTITLE31=Ty uj nas prosti2
EXTD=YEAR: 2005
EXTT0=
EXTT1=
EXTT2=
EXTT3=
EXTT4=
EXTT5=
EXTT6=
EXTT7=
EXTT8=
EXTT9=
EXTT10=
EXTT11=
EXTT12=
EXTT13=
EXTT14=
EXTT15=
EXTT16=
EXTT17=
EXTT18=
EXTT19=
EXTT20=
EXTT21=
EXTT22=
EXTT23=
EXTT24=
EXTT25=
EXTT26=
EXTT27=
EXTT28=
EXTT29=
EXTT30=
EXTT31=
PLAYORDER=
